<?xml version="1.0" encoding="utf-8"?>
<!-- Generator: Adobe Illustrator 25.0.1, SVG Export Plug-In . SVG Version: 6.00 Build 0)  -->
<svg version="1.1" id="Layer_1" xmlns="http://www.w3.org/2000/svg" xmlns:xlink="http://www.w3.org/1999/xlink" x="0px" y="0px"
	 viewBox="0 0 500 60" style="enable-background:new 0 0 500 60;" xml:space="preserve">
<style type="text/css">
	.st0{display:none;fill-rule:evenodd;clip-rule:evenodd;fill:#0071CE;}
	.st1{fill-rule:evenodd;clip-rule:evenodd;fill:#FFFFFF;}
	.st2{fill-rule:evenodd;clip-rule:evenodd;fill:#FCBA30;}
	.st3{fill:#FFFFFF;}
</style>
<rect class="st0" width="500" height="60"/>
<g>
	<g>
		<path class="st1" d="M90,46l2.6-4.6h2.2L91,47.9L90,46z M90.2,49.5l-2.6-4.6h-2.2l3.7,6.5L90.2,49.5z M84.5,43.4h5.3l1.1-1.9h-7.5
			L84.5,43.4z"/>
		<path class="st1" d="M100.1,44.5l-1.5,3.6l-1.5-3.6h-0.3l1.6,4h0.3l1.6-4H100.1z M113.1,48.5l-1.5-3.6l-1.5,3.6h-0.3l1.6-4h0.3
			l1.6,4H113.1z M105.3,46.6h1.4c0.5,0,1.1,0.2,1.1,0.8s-0.6,0.7-1.1,0.7h-1.3L105.3,46.6L105.3,46.6z M105.3,44.7h1.3
			c0.5,0,1,0.2,1,0.8s-0.5,0.7-1,0.7h-1.4L105.3,44.7L105.3,44.7z M106.7,44.5H105v4h1.6c0.7,0,1.4-0.2,1.4-1c0-0.5-0.3-0.9-0.8-1
			c0.4-0.1,0.7-0.5,0.6-0.9C107.9,44.8,107.3,44.5,106.7,44.5L106.7,44.5z M102.7,48.5v-4h-0.3v4H102.7z"/>
	</g>
	<g>
		<path class="st1" d="M86.8,31.6c0,0.3,0,0.6-0.1,0.9c-0.3,1.1-1.5,2.1-3,2.1c-1.2,0-2.2-0.7-2.2-2.1c0-2.2,2.4-2.8,5.2-2.8
			L86.8,31.6L86.8,31.6z M91.2,27.7c0-3.7-1.6-6.9-6.9-6.9c-2.7,0-4.9,0.8-6.1,1.4l0.9,2.9c1.1-0.7,2.8-1.2,4.4-1.2
			c2.7,0,3.1,1.5,3.1,2.5v0.2c-5.9,0-9.5,2-9.5,6.1c0,2.5,1.9,4.9,5.2,4.9c2,0,3.7-0.8,4.7-2.1h0.1c0,0,0.7,2.8,4.3,1.7
			c-0.2-1.2-0.3-2.4-0.3-3.9v-5.6H91.2z M0,15.9c0,0,3.8,15.7,4.4,18.2c0.7,3,2,4.1,5.7,3.3l2.4-9.7c0.6-2.4,1-4.1,1.4-6.6H14
			c0.3,2.5,0.7,4.2,1.2,6.6c0,0,1,4.4,1.5,6.7s1.9,3.8,5.5,3l5.7-21.5h-4.6l-1.9,9.3c-0.5,2.7-1,4.8-1.4,7.3h-0.1
			c-0.3-2.5-0.8-4.5-1.3-7.1l-2-9.5h-4.8l-2.2,9.2C9,27.9,8.4,30.2,8,32.6h0c-0.4-2.3-0.9-5.1-1.4-7.8c0,0-1.3-6.6-1.7-8.9L0,15.9
			L0,15.9z M36.5,31.6c0,0.3,0,0.6-0.1,0.9c-0.3,1.1-1.5,2.1-3,2.1c-1.2,0-2.2-0.7-2.2-2.1c0-2.2,2.4-2.8,5.2-2.8L36.5,31.6
			L36.5,31.6z M40.9,27.7c0-3.7-1.6-6.9-6.9-6.9c-2.7,0-4.9,0.8-6.1,1.4l0.9,2.9c1.1-0.7,2.8-1.2,4.4-1.2c2.7,0,3.1,1.5,3.1,2.5v0.2
			c-5.9,0-9.6,2-9.6,6.1c0,2.5,1.9,4.9,5.2,4.9c2,0,3.7-0.8,4.7-2.1h0.1c0,0,0.7,2.8,4.4,1.7c-0.2-1.2-0.3-2.4-0.3-3.9L40.9,27.7
			L40.9,27.7z M48.2,32.8v-17h-4.4v21.5h4.4V32.8L48.2,32.8z M105.4,15.9v15.9c0,2.2,0.4,3.7,1.3,4.7c0.8,0.8,2,1.3,3.6,1.3
			c1.3,0,2.6-0.2,3.2-0.5l-0.1-3.4c-0.4,0.1-1,0.2-1.7,0.2c-1.5,0-2-0.9-2-2.9v-6.1h3.8V21h-3.8v-5.1L105.4,15.9L105.4,15.9z
			 M94.1,21.2v16.2h4.5v-8.3c0-0.4,0-0.8,0.1-1.2c0.3-1.7,1.7-2.8,3.6-2.8c0.5,0,0.9,0.1,1.3,0.1V21c-0.3-0.1-0.6-0.1-1-0.1
			c-1.7,0-3.6,1.1-4.4,3.4h-0.1v-3.1L94.1,21.2L94.1,21.2z M51.2,21.2v16.2h4.4v-9.5c0-0.4,0.1-0.9,0.2-1.3c0.4-1,1.3-2.1,2.7-2.1
			c1.8,0,2.6,1.5,2.6,3.7v9.2h4.4v-9.6c0-0.4,0.1-0.9,0.2-1.3c0.4-1.1,1.3-2,2.6-2c1.8,0,2.7,1.5,2.7,4v8.9h4.4v-9.5
			c0-5-2.6-7-5.4-7c-1.3,0-2.3,0.3-3.2,0.9c-0.8,0.5-1.5,1.1-2,2h-0.1c-0.7-1.7-2.3-2.9-4.5-2.9c-2.7,0-4,1.4-4.7,2.6h-0.1v-2.2
			h-4.2V21.2z"/>
		<path class="st2" d="M138,21.4L138,21.4c-0.8,0-1.4-0.4-1.5-1l-0.8-8.9c0-0.9,1-1.6,2.3-1.6s2.3,0.7,2.3,1.6l-0.8,8.9
			C139.5,21,138.8,21.4,138,21.4L138,21.4z M133.2,24.2c0.4-0.7,0.4-1.5-0.1-1.8l-7.3-5.1c-0.8-0.4-1.9,0.1-2.5,1.2
			s-0.5,2.4,0.2,2.8l8.1,3.8C132.1,25.3,132.8,24.9,133.2,24.2L133.2,24.2L133.2,24.2z M142.8,24.2c0.4,0.7,1.1,1.1,1.6,0.9l8.1-3.8
			c0.8-0.4,0.9-1.7,0.2-2.8c-0.6-1.1-1.8-1.7-2.5-1.2l-7.3,5.1C142.5,22.8,142.4,23.5,142.8,24.2L142.8,24.2L142.8,24.2z M138,32.6
			L138,32.6c-0.8,0-1.4,0.4-1.5,0.9l-0.8,8.9c0,0.9,1,1.6,2.3,1.6s2.3-0.7,2.3-1.6l-0.8-8.9C139.5,33,138.8,32.6,138,32.6L138,32.6z
			 M142.8,29.8L142.8,29.8c-0.4,0.7-0.4,1.5,0.1,1.8l7.3,5.1c0.8,0.4,1.9-0.1,2.5-1.2c0.6-1.1,0.5-2.4-0.2-2.8l-8.1-3.8
			C143.9,28.7,143.2,29.1,142.8,29.8L142.8,29.8z M133.2,29.8L133.2,29.8c-0.4-0.7-1.1-1-1.6-0.9l-8.1,3.8c-0.8,0.4-0.9,1.7-0.2,2.8
			c0.6,1.1,1.8,1.6,2.5,1.2l7.3-5.1C133.6,31.2,133.6,30.5,133.2,29.8L133.2,29.8z M153.3,38.2l-0.1,0.2c0.1,0,0.2,0.1,0.4,0.1
			c0.4,0,0.5-0.2,0.5-0.4s-0.1-0.3-0.4-0.4c-0.2-0.1-0.3-0.1-0.3-0.2c0-0.1,0.1-0.2,0.2-0.2c0.1,0,0.2,0,0.3,0.1l0.1-0.2
			c-0.1,0-0.2-0.1-0.3-0.1c-0.3,0-0.5,0.2-0.5,0.4s0.1,0.3,0.4,0.4c0.2,0.1,0.2,0.1,0.2,0.2c0,0.1-0.1,0.2-0.3,0.2
			C153.5,38.3,153.4,38.2,153.3,38.2L153.3,38.2z M155.5,37.9v0.6h0.2l-0.1-1.4h-0.3l-0.2,0.6c-0.1,0.2-0.1,0.3-0.1,0.5l0,0
			c0-0.2-0.1-0.3-0.1-0.5l-0.2-0.6h-0.3l-0.1,1.4h0.2v-0.6c0-0.2,0-0.4,0-0.6l0,0c0,0.2,0.1,0.4,0.1,0.5l0.2,0.6h0.2l0.2-0.6
			c0.1-0.2,0.1-0.4,0.2-0.5l0,0C155.5,37.5,155.5,37.7,155.5,37.9L155.5,37.9z"/>
	</g>
	<g>
		<path class="st3" d="M44.7,47.3H44v1.1h-0.6v-3.5h1.4c0.8,0,1.3,0.5,1.3,1.2C46.1,46.9,45.5,47.3,44.7,47.3z M44.7,45.5H44v1.3
			h0.7c0.5,0,0.8-0.3,0.8-0.6C45.5,45.7,45.2,45.5,44.7,45.5z"/>
		<path class="st3" d="M48.6,48.5c-1.1,0-1.8-0.8-1.8-1.8s0.8-1.8,1.8-1.8c1.1,0,1.8,0.8,1.8,1.8S49.7,48.5,48.6,48.5z M48.6,45.4
			c-0.7,0-1.2,0.6-1.2,1.2s0.5,1.3,1.2,1.3c0.7,0,1.2-0.6,1.2-1.2S49.3,45.4,48.6,45.4z"/>
		<path class="st3" d="M53.3,44.9h0.5l0.9,2.6l0.8-2.6h0.6l-1.2,3.5h-0.5L53.5,46l-0.9,2.5h-0.5L50.9,45h0.7l0.8,2.6L53.3,44.9z"/>
		<path class="st3" d="M59.6,45.5h-2v0.9h1.8V47h-1.8v0.9h2v0.6H57V45h2.6V45.5z"/>
		<path class="st3" d="M62.8,48.4l-0.9-1.2h-0.8v1.2h-0.6v-3.5h1.6c0.8,0,1.3,0.4,1.3,1.1c0,0.6-0.3,0.9-0.8,1.1l0.9,1.3
			C63.5,48.4,62.8,48.4,62.8,48.4z M62,45.5h-0.9v1.2H62c0.4,0,0.7-0.2,0.7-0.6C62.7,45.7,62.5,45.5,62,45.5z"/>
		<path class="st3" d="M66.9,45.5h-2v0.9h1.8V47h-1.8v0.9h2v0.6h-2.6V45h2.6V45.5z"/>
		<path class="st3" d="M69.2,48.4h-1.3v-3.5h1.3c1.1,0,1.9,0.8,1.9,1.7S70.3,48.4,69.2,48.4z M69.2,45.5h-0.7v2.4h0.7
			c0.7,0,1.2-0.5,1.2-1.2C70.4,46,69.9,45.5,69.2,45.5z"/>
		<path class="st3" d="M76.4,45.8c0,0.4-0.2,0.7-0.5,0.8c0.4,0.1,0.7,0.4,0.7,0.9c0,0.6-0.5,1-1.3,1h-1.6V45h1.6
			C76,44.9,76.4,45.3,76.4,45.8z M75.8,45.9c0-0.3-0.2-0.5-0.6-0.5h-0.9v0.9h0.8C75.5,46.4,75.8,46.3,75.8,45.9z M76,47.4
			c0-0.3-0.2-0.5-0.7-0.5h-1v1h1C75.7,47.9,76,47.7,76,47.4z"/>
		<path class="st3" d="M79,48.4h-0.6V47L77,44.9h0.7l1,1.6l1-1.6h0.7L79,47V48.4z"/>
	</g>
</g>
</svg>
