<svg id="Layer_1" data-name="Layer 1" xmlns="http://www.w3.org/2000/svg" xmlns:xlink="http://www.w3.org/1999/xlink" viewBox="0 0 500 60"><defs><style>.cls-1,.cls-2{fill-rule:evenodd;}.cls-1{fill:url(#GradientFill_1);}.cls-2{fill:#fff;}</style><linearGradient id="GradientFill_1" x1="39.29" y1="28.1" x2="22.1" y2="8.71" gradientUnits="userSpaceOnUse"><stop offset="0" stop-color="#26b3e8"/><stop offset="1" stop-color="#ea4097"/></linearGradient></defs><path class="cls-1" d="M35.08,28.7,43,15h6.66L38.41,34.46,35.08,28.7Zm.57,10.53-7.9-13.68H21.09L32.32,45l3.33-5.77ZM18.34,20.78h15.8L37.47,15H15Z"/><path class="cls-2" d="M65.11,24,60.7,34.92,56.3,24h-1l4.9,12h1l4.9-12Zm39,12-4.41-10.9L95.33,36h-1l4.9-12h1l4.91,12ZM80.91,30.3H85c1.6,0,3.28.66,3.3,2.52s-1.92,2.24-3.42,2.24h-4V30.3Zm0-5.5h4c1.48,0,3,.74,3,2.48S86.43,29.43,85,29.43H80.91V24.8Zm4-.78H80V36h4.89c2,0,4.32-.67,4.32-3.12a3,3,0,0,0-2.35-3,2.63,2.63,0,0,0,1.94-2.56c0-2.27-1.9-3.26-3.91-3.26ZM73,36V24h-.9V36Z"/></svg>