<?xml version="1.0" encoding="utf-8"?>
<!-- Generator: Adobe Illustrator 25.0.1, SVG Export Plug-In . SVG Version: 6.00 Build 0)  -->
<svg version="1.1" id="Layer_1" xmlns="http://www.w3.org/2000/svg" xmlns:xlink="http://www.w3.org/1999/xlink" x="0px" y="0px"
	 viewBox="0 0 48 48" style="enable-background:new 0 0 48 48;" xml:space="preserve">
<style type="text/css">
	.st0{fill:#FFFFFF;}
	.st1{fill:none;}
</style>
<path class="st0" d="M24,28c3.3,0,6-2.7,6-6l0-12c0-3.3-2.7-6-6-6c-3.3,0-6,2.7-6,6v12C18,25.3,20.7,28,24,28z M34.6,22
	c0,6-5.1,10.2-10.6,10.2c-5.5,0-10.6-4.2-10.6-10.2H10c0,6.8,5.4,12.5,12,13.4V42h4v-6.6c6.6-1,12-6.6,12-13.4H34.6z"/>
<path class="st1" d="M0,0h48v48H0V0z"/>
</svg>
