<?xml version="1.0" encoding="utf-8"?>
<!-- Generator: Adobe Illustrator 25.0.1, SVG Export Plug-In . SVG Version: 6.00 Build 0)  -->
<svg version="1.1" id="Layer_1" xmlns="http://www.w3.org/2000/svg" xmlns:xlink="http://www.w3.org/1999/xlink" x="0px" y="0px"
	 viewBox="0 0 48 48" style="enable-background:new 0 0 48 48;" xml:space="preserve">
<style type="text/css">
	.st0{fill:none;}
</style>
<path class="st0" d="M0,0h48v48H0V0z M0,0h48v48H0V0z"/>
<path d="M42,13l-8,8v-7c0-1.1-0.9-2-2-2H19.6L42,34.4V13z M6.6,4L4,6.6L9.4,12H8c-1.1,0-2,0.9-2,2v20c0,1.1,0.9,2,2,2h24
	c0.4,0,0.8-0.2,1.1-0.4l6.4,6.4l2.5-2.5L6.6,4z"/>
</svg>
