<?xml version="1.0" encoding="utf-8"?>
<!-- Generator: Adobe Illustrator 25.0.1, SVG Export Plug-In . SVG Version: 6.00 Build 0)  -->
<svg version="1.1" id="Layer_1" xmlns="http://www.w3.org/2000/svg" xmlns:xlink="http://www.w3.org/1999/xlink" x="0px" y="0px"
	 viewBox="0 0 48 48" style="enable-background:new 0 0 48 48;" xml:space="preserve">
<style type="text/css">
	.st0{fill:none;}
</style>
<path d="M33,24c0-3.5-2-6.6-5-8.1v4.4l4.9,4.9C33,24.9,33,24.4,33,24z M38,24c0,1.9-0.4,3.6-1.1,5.3l3,3C41.2,29.8,42,27,42,24
	c0-8.6-6-15.7-14-17.5v4.1C33.8,12.3,38,17.7,38,24z M8.6,6L6,8.6l9.4,9.4H6v12h8l10,10V26.5l8.5,8.5c-1.3,1-2.9,1.9-4.5,2.4v4.1
	c2.8-0.6,5.3-1.9,7.4-3.6l4.1,4.1l2.5-2.5l-18-18L8.6,6z M24,8l-4.2,4.2l4.2,4.2V8z"/>
<path class="st0" d="M0,0h48v48H0V0z"/>
</svg>
