<svg xmlns="http://www.w3.org/2000/svg" viewBox="0 0 24 17.63"><defs><style>.cls-1{fill:#999;}</style></defs><g id="Layer_2" data-name="Layer 2"><g id="Layer_1-2" data-name="Layer 1"><path class="cls-1" d="M24,3.52H22.59V1.41H20.48V0H24Z"/><path class="cls-1" d="M1.41,3.52H0V0H3.52V1.41H1.41Z"/><path class="cls-1" d="M24,17.63H20.48V16.22h2.11V14.11H24Z"/><path class="cls-1" d="M3.52,17.63H0V14.11H1.41v2.11H3.52Z"/><path class="cls-1" d="M3,2.71H4.42V14.92H3Z"/><path class="cls-1" d="M5.77,2.71H7.18v9.4H5.77Z"/><path class="cls-1" d="M8.54,2.71h1.4v9.4H8.54Z"/><path class="cls-1" d="M11.3,2.71h1.4V14.92H11.3Z"/><path class="cls-1" d="M14.06,2.71h1.4V14.92h-1.4Z"/><path class="cls-1" d="M19.58,2.71H21V14.92H19.58Z"/><path class="cls-1" d="M16.82,2.71h1.41v9.4H16.82Z"/><path class="cls-1" d="M5.77,13.51H7.18v1.41H5.77Z"/><path class="cls-1" d="M8.54,13.51h1.4v1.41H8.54Z"/><path class="cls-1" d="M16.82,13.51h1.41v1.41H16.82Z"/></g></g></svg>