<?xml version="1.0" encoding="utf-8"?>
<!-- Generator: Adobe Illustrator 25.0.1, SVG Export Plug-In . SVG Version: 6.00 Build 0)  -->
<svg version="1.1" id="Layer_1" xmlns="http://www.w3.org/2000/svg" xmlns:xlink="http://www.w3.org/1999/xlink" x="0px" y="0px"
	 viewBox="0 0 48 12" style="enable-background:new 0 0 48 12;" xml:space="preserve">
<style type="text/css">
	.st0{fill:#999999;}
</style>
<path id="icon-more-wht" class="st0" d="M6,0C2.7,0,0,2.7,0,6s2.7,6,6,6s6-2.7,6-6S9.3,0,6,0z M42,0c-3.3,0-6,2.7-6,6s2.7,6,6,6
	s6-2.7,6-6S45.3,0,42,0z M24,0c-3.3,0-6,2.7-6,6s2.7,6,6,6s6-2.7,6-6S27.3,0,24,0z"/>
</svg>
