<?xml version="1.0" encoding="utf-8"?>
<!-- Generator: Adobe Illustrator 25.1.0, SVG Export Plug-In . SVG Version: 6.00 Build 0)  -->
<svg version="1.1" id="Layer_1" xmlns="http://www.w3.org/2000/svg" xmlns:xlink="http://www.w3.org/1999/xlink" x="0px" y="0px"
	 viewBox="0 0 24 17.6" style="enable-background:new 0 0 24 17.6;" xml:space="preserve">
<g id="Layer_2_1_">
	<g id="Layer_1-2">
		<path d="M24,3.5h-1.4V1.4h-2.1V0H24V3.5z"/>
		<path d="M1.4,3.5H0V0h3.5v1.4H1.4V3.5z"/>
		<path d="M24,17.6h-3.5v-1.4h2.1v-2.1H24V17.6z"/>
		<path d="M3.5,17.6H0v-3.5h1.4v2.1h2.1V17.6z"/>
		<path d="M3,2.7h1.4v12.2H3V2.7z"/>
		<path d="M5.8,2.7h1.4v9.4H5.8V2.7z"/>
		<path d="M8.5,2.7h1.4v9.4H8.5V2.7z"/>
		<path d="M11.3,2.7h1.4v12.2h-1.4V2.7z"/>
		<path d="M14.1,2.7h1.4v12.2h-1.4V2.7z"/>
		<path d="M19.6,2.7H21v12.2h-1.4V2.7z"/>
		<path d="M16.8,2.7h1.4v9.4h-1.4V2.7z"/>
		<path d="M5.8,13.5h1.4v1.4H5.8V13.5z"/>
		<path d="M8.5,13.5h1.4v1.4H8.5V13.5z"/>
		<path d="M16.8,13.5h1.4v1.4h-1.4V13.5z"/>
	</g>
</g>
</svg>
