<svg xmlns="http://www.w3.org/2000/svg" xmlns:xlink="http://www.w3.org/1999/xlink" viewBox="0 0 183.36 200"><defs><style>.cls-1,.cls-2{fill-rule:evenodd;}.cls-1{fill:url(#GradientFill_1);}.cls-2{fill:#283442;}</style><linearGradient id="GradientFill_1" x1="117.33" y1="48.09" x2="54.11" y2="-23.2" gradientUnits="userSpaceOnUse"><stop offset="0" stop-color="#26b3e8"/><stop offset="1" stop-color="#ea4097"/></linearGradient></defs><g id="Layer_2" data-name="Layer 2"><g id="Layer_1-2" data-name="Layer 1"><path class="cls-1" d="M101.82,50.42,130.93,0h24.51L114.08,71.64,101.82,50.42ZM103.93,89,74.85,38.65H50.34l41.34,71.59L103.93,89ZM40.22,21.26H98.34L110.62,0H27.94Z"/><path class="cls-2" d="M36,156l-16.2,40.07L3.63,156H0l18,44h3.63l18-44Zm143.71,44-16.2-40.07L147.34,200h-3.63l18-44h3.63l18,44ZM94.44,179.23h14.91c5.84,0,12,2.42,12.05,9.19s-7,8.2-12.48,8.2H94.44V179.23Zm0-20.29h14.49c5.41,0,11.12,2.68,11.12,9s-5.47,7.87-10.69,7.87H94.44V158.94Zm14.62-2.9h-18v44h18c7.53,0,15.93-2.45,15.93-11.48a11.23,11.23,0,0,0-8.65-11,9.67,9.67,0,0,0,7.14-9.44c0-8.37-7-12-14.42-12ZM65,200V156H61.59v44Z"/></g></g></svg>