<svg id="Layer_1" data-name="Layer 1" xmlns="http://www.w3.org/2000/svg" viewBox="0 0 24 24"><defs><style>.cls-1{fill:#999;}</style></defs><path class="cls-1" d="M8.49,4.75v-1a.33.33,0,0,1,.33-.33h6.36a.33.33,0,0,1,.33.33v1a.34.34,0,0,1-.33.34H8.82A.34.34,0,0,1,8.49,4.75ZM14,1.8a2,2,0,0,0-3.9,0Zm6.4,4.05v16A2.14,2.14,0,0,1,18.21,24H5.79a2.14,2.14,0,0,1-2.14-2.13v-16A2.14,2.14,0,0,1,5.79,3.72H6.9v1A1.92,1.92,0,0,0,8.82,6.68h6.36A1.92,1.92,0,0,0,17.1,4.75v-1h1.11A2.14,2.14,0,0,1,20.35,5.85Zm-11,9.33a.79.79,0,0,0-1.09.26l-.75,1.21-.39-.3a.79.79,0,0,0-1,1.25l1.09.85a.79.79,0,0,0,.49.17h.14a.77.77,0,0,0,.53-.37l1.22-2A.79.79,0,0,0,9.33,15.18Zm0-5.72a.79.79,0,0,0-1.09.26l-.75,1.22-.39-.3A.78.78,0,0,0,6,10.77a.78.78,0,0,0,.13,1.11l1.09.86a.79.79,0,0,0,.49.17h.14a.81.81,0,0,0,.53-.37l1.22-2A.8.8,0,0,0,9.33,9.46Zm8.22,8.37a.8.8,0,0,0-.8-.8H11.57a.79.79,0,0,0-.79.8.79.79,0,0,0,.79.79h5.18A.79.79,0,0,0,17.55,17.83Zm0-5.72a.8.8,0,0,0-.8-.79H11.57a.8.8,0,0,0,0,1.59h5.18A.8.8,0,0,0,17.55,12.11Z"/></svg>