<svg id="Layer_1" data-name="Layer 1" xmlns="http://www.w3.org/2000/svg" viewBox="0 0 24 24"><defs><style>.cls-1{fill:#999;}</style></defs><path class="cls-1" d="M9.67,0h4.66V1.67H9.67Z"/><path class="cls-1" d="M8.75,14l2.55,1.43V11.94L8.75,10.51Z"/><path class="cls-1" d="M12,7.9,9.48,9.31,12,10.72l2.52-1.41Z"/><path class="cls-1" d="M12.7,15.47,15.25,14V10.51L12.7,11.94Z"/><path class="cls-1" d="M17.5,0H15.74V2.38a.7.7,0,0,1-.71.7H9a.7.7,0,0,1-.71-.7V0H6.5A2.43,2.43,0,0,0,4.08,2.42V21.58A2.43,2.43,0,0,0,6.5,24h11a2.43,2.43,0,0,0,2.42-2.42V2.42A2.43,2.43,0,0,0,17.5,0ZM14,22.14H10a.71.71,0,0,1,0-1.41H14a.71.71,0,0,1,0,1.41Zm2.69-7.69a.7.7,0,0,1-.36.61l-4,2.22a.69.69,0,0,1-.68,0l-4-2.22a.7.7,0,0,1-.36-.61V9.31A.7.7,0,0,1,7.7,8.7l4-2.22a.69.69,0,0,1,.68,0l4,2.22a.7.7,0,0,1,.36.61Z"/></svg>