<svg id="Layer_1" data-name="Layer 1" xmlns="http://www.w3.org/2000/svg" viewBox="0 0 24 24"><defs><style>.cls-1{fill:#999;}</style></defs><path class="cls-1" d="M5,24H19a2.12,2.12,0,0,0,2.11-2.11V7H16.22a2.11,2.11,0,0,1-2.11-2.11V0H5A2.12,2.12,0,0,0,2.86,2.11V21.89A2.12,2.12,0,0,0,5,24ZM7.78,9.89h8.44a.71.71,0,0,1,0,1.41H7.78a.71.71,0,0,1,0-1.41Zm0,2.81h8.44a.71.71,0,0,1,0,1.41H7.78a.71.71,0,0,1,0-1.41Zm0,2.82h8.44a.7.7,0,1,1,0,1.4H7.78a.7.7,0,1,1,0-1.4Zm0,2.81h5.63a.7.7,0,0,1,0,1.4H7.78a.7.7,0,0,1,0-1.4Z"/><path class="cls-1" d="M16.22,5.63h4.51L15.52.41V4.92A.7.7,0,0,0,16.22,5.63Z"/></svg>